<svg width="120" height="100" viewBox="0 0 120 100" fill="none" xmlns="http://www.w3.org/2000/svg">
<g id="triangles">
<rect width="120" height="100" fill="white"/>
<g id="darkGroup">
<path id="dark1" d="M39.5 47.9019C41.5 49.0566 41.5 51.9434 39.5 53.0981L22.25 63.0574C20.25 64.2121 17.75 62.7687 17.75 60.4593L17.75 40.5407C17.75 38.2313 20.25 36.7879 22.25 37.9426L39.5 47.9019Z" fill="#BB2AEE" fill-opacity="0.7"/>
<path id="dark2" d="M57.5 47.9019C59.5 49.0566 59.5 51.9434 57.5 53.0981L40.25 63.0574C38.25 64.2121 35.75 62.7687 35.75 60.4593L35.75 40.5407C35.75 38.2313 38.25 36.7879 40.25 37.9426L57.5 47.9019Z" fill="#0070D7" fill-opacity="0.7"/>
</g>
<g id="lightGroup">
<path id="dark3" d="M75.5 47.9019C77.5 49.0566 77.5 51.9434 75.5 53.0981L58.25 63.0574C56.25 64.2121 53.75 62.7687 53.75 60.4593L53.75 40.5407C53.75 38.2313 56.25 36.7879 58.25 37.9426L75.5 47.9019Z" fill="#BB2AEE" fill-opacity="0.7"/>
</g>
</g>
</svg>
